<svg role="img" aria-label="Antas line logo" xmlns="http://www.w3.org/2000/svg" xmlns:xlink="http://www.w3.org/1999/xlink" xmlns:inkscape="http://www.inkscape.org/namespaces/inkscape" version="1.1" width="339.90928" height="108.5728" viewBox="0 0 339.90928 108.5728">
<defs>
<clipPath id="clip_1">
<path transform="matrix(1,0,0,-1,-.1237998,224.365)" d="M.1237998 115.792209H340.03309V224.365H.1237998Z" clip-rule="evenodd"/>
</clipPath>
<clipPath id="clip_2">
<path transform="matrix(1,0,0,-1,-.1237998,224.365)" d="M0 340.157H340.157V0H0Z"/>
</clipPath>
</defs>
<g clip-path="url(#clip_1)">
<g inkscape:groupmode="layer" inkscape:label="Layer 1">
<path transform="matrix(1,0,0,-1,103.7295,88.020008)" d="M0 0-3.914 9.936-7.879 0ZM-8.531 21.478H.853L15.807-13.9H5.369L2.86-7.577H-10.739L-13.248-13.9H-23.435Z" fill="#0E2950"/>
<g clip-path="url(#clip_2)">
<path transform="matrix(1,0,0,-1,122.3965,74.772)" d="M0 0H9.534V-3.814C9.969-3.245 10.454-2.693 10.99-2.158 11.524-1.623 12.127-1.154 12.797-.753 13.465-.352 14.201-.025 15.004 .226 15.807 .477 16.693 .602 17.664 .602 20.59 .602 22.869-.285 24.501-2.058 26.131-3.831 26.947-6.272 26.947-9.384V-27.148H17.413V-12.445C17.413-10.939 17.062-9.794 16.359-9.008 15.656-8.222 14.72-7.828 13.549-7.828 12.378-7.828 11.417-8.222 10.664-9.008 9.911-9.794 9.534-10.939 9.534-12.445V-27.148H0Z" fill="#0E2950"/>
<path transform="matrix(1,0,0,-1,165.0478,102.472209)" d="M0 0C-2.893 0-5.137 .686-6.734 2.058-8.332 3.429-9.13 5.737-9.13 8.982V20.072H-12.342V27.7H-9.13V34.575H.404V27.7H6.727V20.072H.404V10.801C.404 9.826 .621 9.129 1.057 8.709 1.491 8.288 2.144 8.079 3.014 8.079 3.648 8.079 4.268 8.167 4.87 8.344 5.473 8.521 6.058 8.75 6.627 9.032V1.605C5.756 1.137 4.77 .753 3.666 .451 2.563 .15 1.339 0 0 0" fill="#0E2950"/>
<path transform="matrix(1,0,0,-1,187.02931,96.55131)" d="M0 0C1.405 0 2.551 .401 3.438 1.205 4.324 2.008 4.768 3.095 4.768 4.467V5.721C4.266 5.922 3.688 6.089 3.037 6.223 2.384 6.356 1.707 6.424 1.004 6.424-.401 6.424-1.479 6.123-2.232 5.521-2.985 4.918-3.361 4.098-3.361 3.062V2.961C-3.361 2.024-3.044 1.297-2.408 .778-1.773 .259-.97 0 0 0M-3.412-5.971C-4.717-5.971-5.921-5.787-7.025-5.419-8.129-5.052-9.082-4.508-9.885-3.788-10.688-3.069-11.324-2.191-11.792-1.154-12.261-.117-12.495 1.07-12.495 2.409V2.51C-12.495 3.914-12.235 5.151-11.717 6.223-11.198 7.293-10.479 8.188-9.56 8.907-8.64 9.627-7.526 10.162-6.223 10.514-4.917 10.864-3.462 11.04-1.856 11.04-.585 11.04 .628 10.939 1.782 10.739 2.936 10.538 3.897 10.287 4.667 9.986V10.438C4.667 11.876 4.224 12.98 3.338 13.75 2.451 14.52 1.087 14.904-.752 14.904-2.191 14.904-3.496 14.771-4.667 14.503-5.838 14.234-7.042 13.867-8.279 13.398L-10.236 20.073C-8.698 20.708-7.067 21.219-5.344 21.604-3.621 21.987-1.589 22.181 .753 22.181 3.195 22.181 5.261 21.896 6.951 21.327 8.64 20.758 10.02 19.939 11.091 18.868 12.127 17.865 12.872 16.652 13.324 15.23 13.775 13.808 14.001 12.145 14.001 10.237V-5.369H4.617V-2.509C3.646-3.546 2.518-4.383 1.229-5.018-.059-5.653-1.605-5.971-3.412-5.971" fill="#0E2950"/>
<path transform="matrix(1,0,0,-1,216.68651,102.522)" d="M0 0C-2.308 0-4.55 .334-6.724 1.003-8.898 1.672-10.923 2.692-12.796 4.064L-9.232 9.785C-7.661 8.748-6.071 7.97-4.466 7.451-2.86 6.933-1.354 6.674 .051 6.674 1.689 6.674 2.51 7.158 2.51 8.129V8.229C2.51 8.798 2.133 9.232 1.38 9.534 .628 9.835-.469 10.187-1.906 10.588-3.245 10.922-4.5 11.307-5.67 11.742-6.842 12.176-7.861 12.721-8.731 13.373-9.602 14.025-10.287 14.819-10.788 15.756-11.291 16.692-11.541 17.847-11.541 19.219V19.319C-11.541 20.757-11.266 22.037-10.714 23.158-10.161 24.278-9.401 25.216-8.43 25.969-7.46 26.722-6.314 27.298-4.992 27.7-3.672 28.102-2.225 28.302-.651 28.302 1.355 28.302 3.329 28.025 5.27 27.474 7.209 26.922 8.966 26.145 10.538 25.141L7.276 19.119C5.871 19.922 4.449 20.549 3.012 21 1.572 21.452 .318 21.678-.753 21.678-1.488 21.678-2.04 21.553-2.408 21.302-2.777 21.051-2.96 20.725-2.96 20.323V20.223C-2.96 19.687-2.576 19.261-1.806 18.943-1.037 18.625 .051 18.248 1.456 17.813 2.794 17.445 4.048 17.036 5.22 16.585 6.39 16.133 7.41 15.581 8.28 14.929 9.149 14.276 9.836 13.481 10.338 12.545 10.84 11.607 11.091 10.487 11.091 9.183V9.082C11.091 7.577 10.822 6.264 10.288 5.143 9.752 4.021 8.999 3.077 8.029 2.308 7.059 1.538 5.888 .961 4.517 .576 3.145 .192 1.64 0 0 0" fill="#0E2950"/>
<path transform="matrix(1,0,0,-1,-.1237998,224.365)" d="M245.966 159.077H255.5V122.444H245.966Z" fill="#0E2950"/>
<path transform="matrix(1,0,0,-1,-.1237998,224.365)" d="M261.07 149.593H270.604V122.445H261.07ZM260.869 159.077H270.806V152.052H260.869Z" fill="#0E2950"/>
<path transform="matrix(1,0,0,-1,275.7998,74.772)" d="M0 0H9.534V-3.814C9.969-3.245 10.454-2.693 10.99-2.158 11.524-1.623 12.127-1.154 12.796-.753 13.465-.352 14.201-.025 15.004 .226 15.807 .477 16.693 .602 17.664 .602 20.59 .602 22.868-.285 24.5-2.058 26.131-3.831 26.947-6.272 26.947-9.384V-27.148H17.413V-12.445C17.413-10.939 17.062-9.794 16.358-9.008 15.656-8.222 14.72-7.828 13.549-7.828 12.377-7.828 11.416-8.222 10.663-9.008 9.91-9.794 9.534-10.939 9.534-12.445V-27.148H0Z" fill="#0E2950"/>
<path transform="matrix(1,0,0,-1,325.02729,86.11281)" d="M0 0C-.168 1.505-.678 2.701-1.53 3.588-2.384 4.474-3.462 4.917-4.768 4.917-6.039 4.917-7.076 4.474-7.879 3.588-8.682 2.701-9.217 1.505-9.484 0ZM-3.914-16.46C-6.056-16.46-8.013-16.116-9.785-15.431-11.559-14.746-13.09-13.784-14.377-12.546-15.665-11.309-16.669-9.828-17.388-8.104-18.107-6.382-18.467-4.467-18.467-2.358V-2.259C-18.467-.285-18.133 1.563-17.463 3.286-16.794 5.009-15.85 6.515-14.628 7.803-13.407 9.091-11.961 10.103-10.287 10.839-8.615 11.574-6.774 11.942-4.768 11.942-2.426 11.942-.401 11.541 1.305 10.738 3.011 9.936 4.424 8.856 5.545 7.502 6.666 6.146 7.502 4.574 8.055 2.785 8.606 .995 8.882-.903 8.882-2.911V-3.864C8.882-4.199 8.864-4.534 8.832-4.868H-9.334C-8.966-6.373-8.272-7.494-7.251-8.23-6.23-8.967-4.968-9.334-3.462-9.334-2.292-9.334-1.238-9.117-.301-8.682 .635-8.247 1.589-7.545 2.56-6.574L7.828-10.939C6.523-12.613 4.918-13.951 3.011-14.954 1.104-15.958-1.204-16.46-3.914-16.46" fill="#0E2950"/>
<path transform="matrix(1,0,0,-1,88.9961,6)" d="M0 0 21.994-21.994 2.051-41.937 14.361-20.617-7.813-7.814Z" fill="#F89C1C" fill-rule="evenodd"/>
<path transform="matrix(1,0,0,-1,64.8926,8.204605)" d="M0 0 33.975-19.615 15.905-50.91 24.05-20.519-7.037-12.188Z" fill="#F04D22" fill-rule="evenodd"/>
<path transform="matrix(1,0,0,-1,35.083,17.68991)" d="M0 0 49.838-13.354 38.182-56.852V-16.396H-4.393Z" fill="#5287B7" fill-rule="evenodd"/>
<path transform="matrix(1,0,0,-1,6,37.37651)" d="M0 0 .001-63.974H63.975V0Z" fill="#0B3E75" fill-rule="evenodd"/>
<path transform="matrix(1,0,0,-1,62.5996,69.1528)" d="M0 0C-.855 .02-1.709 .04-2.566 .063L-9.968 .177C-13.248 .22-16.583 .234-19.808 .247-21.271 .253-22.734 .259-24.197 .268-24.206 1.752-24.213 3.236-24.219 4.721-24.231 7.925-24.245 11.238-24.288 14.499L-24.402 21.901C-24.426 22.765-24.446 23.629-24.467 24.493-24.504 26.07-24.542 27.7-24.602 29.304H-24.94C-25.002 27.682-25.04 26.033-25.078 24.439-25.098 23.593-25.117 22.747-25.141 21.899L-25.254 14.498C-25.298 11.228-25.311 7.903-25.324 4.688-25.33 3.215-25.337 1.741-25.346 .268-26.894 .258-28.441 .252-29.99 .245-33.132 .232-36.38 .22-39.575 .176-44.038 .117-49.23 .039-54.381-.137V-.476C-49.243-.65-44.045-.729-39.575-.788-36.39-.831-33.149-.844-30.018-.857-28.46-.863-26.902-.87-25.346-.88-25.336-2.423-25.329-3.967-25.322-5.511-25.31-8.656-25.296-11.909-25.253-15.109-25.181-20.63-25.1-25.26-24.94-29.915H-24.602C-24.426-24.766-24.349-19.573-24.29-15.109-24.246-11.909-24.232-8.656-24.22-5.511-24.214-3.967-24.208-2.423-24.197-.88-22.72-.871-21.241-.865-19.763-.858-16.553-.846-13.233-.832-9.968-.789L-2.566-.676H-2.564C-1.709-.652-.854-.632 .001-.611 1.586-.574 3.225-.536 4.838-.476V-.137C3.225-.076 1.585-.038 0 0" fill="#ffffff"/>
</g>
</g>
</g>
</svg>
