<svg role="img" aria-label="Antas line logo" xmlns="http://www.w3.org/2000/svg" xmlns:xlink="http://www.w3.org/1999/xlink" xmlns:inkscape="http://www.inkscape.org/namespaces/inkscape" version="1.1" width="166.9393" height="194.17038" viewBox="0 0 166.9393 194.17038">
<defs>
<clipPath id="clip_1">
<path transform="matrix(1,0,0,-1,-86.6089,267.1638)" d="M86.6089 72.99341H253.5482V267.1638H86.6089Z" clip-rule="evenodd"/>
</clipPath>
<clipPath id="clip_2">
<path transform="matrix(1,0,0,-1,-86.6089,267.1638)" d="M0 340.157H340.157V0H0Z"/>
</clipPath>
</defs>
<g clip-path="url(#clip_1)">
<g inkscape:groupmode="layer" inkscape:label="Layer 1">
<path transform="matrix(1,0,0,-1,29.434998,132.91649)" d="M0 0-3.914 9.936-7.878 0ZM-8.531 21.478H.854L15.807-13.9H5.37L2.86-7.578H-10.739L-13.248-13.9H-23.435Z" fill="#0E2950"/>
<g clip-path="url(#clip_2)">
<path transform="matrix(1,0,0,-1,48.102495,119.66838)" d="M0 0H9.535V-3.814C9.969-3.245 10.454-2.693 10.99-2.158 11.524-1.623 12.126-1.154 12.796-.753 13.465-.352 14.202-.025 15.004 .226 15.807 .477 16.693 .602 17.664 .602 20.59 .602 22.869-.285 24.5-2.058 26.131-3.831 26.947-6.273 26.947-9.385V-27.148H17.413V-12.445C17.413-10.939 17.062-9.794 16.359-9.008 15.657-8.223 14.72-7.829 13.549-7.829 12.377-7.829 11.416-8.223 10.664-9.008 9.911-9.794 9.535-10.939 9.535-12.445V-27.148H0Z" fill="#0E2950"/>
<path transform="matrix(1,0,0,-1,90.75389,147.36859)" d="M0 0C-2.893 0-5.138 .685-6.735 2.058-8.333 3.429-9.131 5.737-9.131 8.982V20.072H-12.342V27.7H-9.131V34.574H.404V27.7H6.727V20.072H.404V10.801C.404 9.826 .621 9.129 1.056 8.708 1.491 8.288 2.143 8.079 3.014 8.079 3.648 8.079 4.268 8.167 4.87 8.344 5.472 8.521 6.057 8.75 6.626 9.032V1.605C5.756 1.137 4.77 .752 3.666 .451 2.562 .15 1.339 0 0 0" fill="#0E2950"/>
<path transform="matrix(1,0,0,-1,112.73529,141.4477)" d="M0 0C1.405 0 2.551 .401 3.438 1.205 4.324 2.008 4.768 3.095 4.768 4.466V5.721C4.266 5.922 3.688 6.089 3.036 6.223 2.384 6.355 1.706 6.423 1.004 6.423-.401 6.423-1.48 6.122-2.233 5.521-2.985 4.918-3.362 4.098-3.362 3.062V2.961C-3.362 2.023-3.044 1.296-2.408 .778-1.773 .259-.97 0 0 0M-3.412-5.972C-4.717-5.972-5.921-5.787-7.025-5.419-8.129-5.052-9.083-4.508-9.885-3.788-10.688-3.069-11.324-2.191-11.792-1.154-12.261-.117-12.495 1.07-12.495 2.409V2.509C-12.495 3.914-12.236 5.151-11.717 6.223-11.199 7.293-10.48 8.188-9.56 8.907-8.64 9.626-7.527 10.162-6.222 10.513-4.918 10.864-3.462 11.04-1.856 11.04-.585 11.04 .627 10.939 1.782 10.739 2.936 10.538 3.897 10.287 4.667 9.986V10.438C4.667 11.876 4.224 12.979 3.337 13.75 2.45 14.52 1.087 14.904-.752 14.904-2.191 14.904-3.496 14.77-4.667 14.503-5.838 14.234-7.042 13.867-8.28 13.398L-10.237 20.072C-8.698 20.708-7.067 21.218-5.344 21.604-3.622 21.987-1.589 22.181 .753 22.181 3.194 22.181 5.261 21.896 6.95 21.327 8.639 20.758 10.02 19.938 11.091 18.868 12.127 17.865 12.872 16.651 13.324 15.23 13.775 13.808 14.001 12.145 14.001 10.237V-5.369H4.617V-2.509C3.646-3.546 2.517-4.383 1.23-5.018-.059-5.653-1.605-5.972-3.412-5.972" fill="#0E2950"/>
<path transform="matrix(1,0,0,-1,142.3931,147.41939)" d="M0 0C-2.309 0-4.55 .335-6.724 1.004-8.899 1.673-10.923 2.692-12.796 4.065L-9.234 9.785C-7.661 8.748-6.072 7.971-4.466 7.452-2.86 6.934-1.355 6.675 .05 6.675 1.689 6.675 2.509 7.159 2.509 8.13V8.23C2.509 8.799 2.133 9.233 1.38 9.535 .627 9.836-.469 10.188-1.907 10.589-3.246 10.923-4.5 11.308-5.67 11.743-6.842 12.177-7.862 12.722-8.731 13.373-9.602 14.026-10.287 14.82-10.789 15.757-11.291 16.693-11.542 17.848-11.542 19.22V19.32C-11.542 20.758-11.266 22.038-10.714 23.159-10.162 24.279-9.401 25.217-8.43 25.969-7.46 26.722-6.315 27.299-4.993 27.7-3.672 28.102-2.225 28.303-.653 28.303 1.355 28.303 3.328 28.026 5.269 27.475 7.209 26.923 8.965 26.145 10.538 25.142L7.276 19.119C5.871 19.922 4.449 20.55 3.011 21.001 1.572 21.453 .318 21.679-.753 21.679-1.489 21.679-2.041 21.553-2.409 21.303-2.777 21.052-2.96 20.726-2.96 20.324V20.224C-2.96 19.687-2.576 19.262-1.806 18.943-1.038 18.626 .05 18.249 1.455 17.814 2.792 17.446 4.048 17.037 5.219 16.585 6.39 16.134 7.41 15.582 8.28 14.929 9.149 14.277 9.835 13.481 10.337 12.546 10.839 11.608 11.09 10.488 11.09 9.184V9.083C11.09 7.578 10.822 6.265 10.288 5.144 9.752 4.022 8.999 3.078 8.029 2.309 7.058 1.539 5.888 .962 4.517 .577 3.144 .193 1.639 0 0 0" fill="#0E2950"/>
<path transform="matrix(1,0,0,-1,-86.6089,267.1638)" d="M123.446 116.279H132.981V79.645999H123.446Z" fill="#0E2950"/>
<path transform="matrix(1,0,0,-1,-86.6089,267.1638)" d="M138.55 106.794H148.084V79.645999H138.55ZM138.35 116.279H148.28601V109.254H138.35Z" fill="#0E2950"/>
<path transform="matrix(1,0,0,-1,66.795398,160.3696)" d="M0 0H9.534V-3.813C9.969-3.245 10.454-2.693 10.989-2.157 11.524-1.623 12.126-1.154 12.796-.753 13.465-.352 14.201-.025 15.004 .226 15.807 .477 16.693 .603 17.663 .603 20.59 .603 22.868-.284 24.5-2.058 26.13-3.831 26.947-6.272 26.947-9.384V-27.148H17.413V-12.445C17.413-10.939 17.062-9.794 16.359-9.008 15.656-8.222 14.719-7.828 13.549-7.828 12.377-7.828 11.416-8.222 10.663-9.008 9.911-9.794 9.534-10.939 9.534-12.445V-27.148H0Z" fill="#0E2950"/>
<path transform="matrix(1,0,0,-1,116.0224,171.71039)" d="M0 0C-.168 1.506-.677 2.701-1.53 3.588-2.384 4.474-3.463 4.918-4.767 4.918-6.039 4.918-7.076 4.474-7.878 3.588-8.682 2.701-9.217 1.506-9.484 0ZM-3.914-16.46C-6.056-16.46-8.013-16.116-9.786-15.431-11.56-14.745-13.09-13.783-14.377-12.545-15.666-11.309-16.669-9.828-17.388-8.104-18.108-6.382-18.467-4.466-18.467-2.358V-2.259C-18.467-.284-18.133 1.563-17.463 3.287-16.795 5.01-15.85 6.515-14.628 7.803-13.407 9.091-11.961 10.103-10.287 10.839-8.615 11.574-6.774 11.943-4.767 11.943-2.426 11.943-.401 11.542 1.304 10.738 3.011 9.936 4.424 8.856 5.545 7.502 6.666 6.147 7.502 4.574 8.054 2.785 8.606 .995 8.882-.903 8.882-2.91V-3.864C8.882-4.199 8.865-4.533 8.832-4.868H-9.334C-8.966-6.373-8.272-7.494-7.251-8.229-6.231-8.966-4.968-9.334-3.463-9.334-2.292-9.334-1.238-9.117-.301-8.682 .635-8.247 1.588-7.545 2.56-6.574L7.828-10.939C6.523-12.613 4.918-13.95 3.011-14.954 1.104-15.958-1.205-16.46-3.914-16.46" fill="#0E2950"/>
<path transform="matrix(1,0,0,-1,138.9453,6)" d="M0 0 21.994-21.994 2.051-41.937 14.361-20.617-7.814-7.814Z" fill="#F89C1C" fill-rule="evenodd"/>
<path transform="matrix(1,0,0,-1,114.84129,8.205078)" d="M0 0 33.974-19.614 15.905-50.91 24.049-20.518-7.037-12.188Z" fill="#F04D22" fill-rule="evenodd"/>
<path transform="matrix(1,0,0,-1,85.03169,17.690384)" d="M0 0 49.837-13.354 38.182-56.852V-16.396H-4.393Z" fill="#5287B7" fill-rule="evenodd"/>
<path transform="matrix(1,0,0,-1,55.949205,37.376893)" d="M0 0V-63.973H63.974V.001Z" fill="#0B3E75" fill-rule="evenodd"/>
<path transform="matrix(1,0,0,-1,112.707508,69.05809)" d="M0 0C-.855 .02-1.709 .041-2.566 .064L-9.967 .177C-13.248 .221-16.583 .234-19.808 .248-21.271 .253-22.734 .259-24.198 .268-24.207 1.752-24.213 3.237-24.219 4.721-24.231 7.926-24.245 11.239-24.289 14.499L-24.402 21.901C-24.425 22.765-24.446 23.629-24.466 24.494-24.503 26.07-24.542 27.7-24.602 29.304H-24.94C-25.001 27.682-25.04 26.034-25.078 24.439-25.098 23.594-25.118 22.748-25.14 21.899L-25.254 14.499C-25.297 11.228-25.311 7.904-25.324 4.689-25.33 3.215-25.336 1.742-25.345 .268-26.894 .258-28.441 .252-29.99 .246-33.131 .233-36.38 .22-39.576 .176-44.038 .117-49.23 .04-54.38-.136V-.475C-49.243-.65-44.044-.728-39.576-.787-36.389-.831-33.149-.844-30.017-.857-28.459-.863-26.902-.869-25.345-.879-25.335-2.423-25.329-3.967-25.323-5.51-25.31-8.656-25.296-11.909-25.253-15.109-25.18-20.629-25.099-25.26-24.94-29.914H-24.602C-24.426-24.765-24.349-19.572-24.29-15.109-24.246-11.909-24.233-8.656-24.22-5.51-24.214-3.967-24.208-2.423-24.198-.879-22.719-.871-21.241-.865-19.763-.858-16.552-.845-13.233-.832-9.967-.789L-2.566-.675H-2.564C-1.709-.652-.854-.631 .001-.611 1.586-.574 3.225-.535 4.838-.475V-.136C3.225-.076 1.585-.037 0 0" fill="#ffffff"/>
</g>
</g>
</g>
</svg>
