<svg xmlns="http://www.w3.org/2000/svg" viewBox="0 0 24 24" width="24" height="24">
  <title>Wood Floor Plank with Click-Lock Tabs</title>
  <path fill="#0E2950" fill-rule="evenodd" d="M2 12 h3.5 l-1 -5 h4 l-1 5 h3.5 l-1 -5 h4 l-1 5 h3.5 l-1 -5 h4 l-1 5 h3.5 v2.5 l1.5 0.5 v2 l-1.5 0.5 v2.5 H2 v-2.5 l1.5 -0.5 v-2 L2 14.5 Z M4.5 15.8 Q8 14.3 10 14.3 Q12 13.3 14 14.3 Q16 15.3 19.5 15.8 Q16 16.3 14 15.3 Q12 14.3 10 15.3 Q8 16.3 4.5 15.8 Z M4.5 16.2 Q8 17.7 10 17.7 Q12 18.7 14 17.7 Q16 16.7 19.5 16.2 Q16 15.7 14 16.7 Q12 17.7 10 16.7 Q8 15.7 4.5 16.2 Z M11.25 16 A0.75 0.5 0 1 0 12.75 16 A0.75 0.5 0 1 0 11.25 16 Z" />
</svg>